<svg width="352" height="120" viewBox="0 0 352 120" fill="none" xmlns="http://www.w3.org/2000/svg">
<path opacity="0.8" d="M108 12H12V108H108V12Z" stroke="#00FF41" stroke-width="3.6"/>
<g opacity="0.9">
<path d="M36 24V96" stroke="#00FF41" stroke-width="2.4"/>
<path d="M60 24V96" stroke="#00FF41" stroke-width="2.4"/>
<path d="M84 24V96" stroke="#00FF41" stroke-width="2.4"/>
<path d="M24 36H96" stroke="#00FF41" stroke-width="2.4"/>
<path d="M24 60H96" stroke="#00FF41" stroke-width="2.4"/>
<path d="M24 84H96" stroke="#00FF41" stroke-width="2.4"/>
</g>
<path d="M36 39.6C37.9882 39.6 39.6 37.9882 39.6 36C39.6 34.0118 37.9882 32.4 36 32.4C34.0118 32.4 32.4 34.0118 32.4 36C32.4 37.9882 34.0118 39.6 36 39.6Z" fill="#00FF41"/>
<path d="M60 39.6C61.9882 39.6 63.6 37.9882 63.6 36C63.6 34.0118 61.9882 32.4 60 32.4C58.0118 32.4 56.4 34.0118 56.4 36C56.4 37.9882 58.0118 39.6 60 39.6Z" fill="#00FF41"/>
<path d="M84 39.6C85.9882 39.6 87.6 37.9882 87.6 36C87.6 34.0118 85.9882 32.4 84 32.4C82.0118 32.4 80.4 34.0118 80.4 36C80.4 37.9882 82.0118 39.6 84 39.6Z" fill="#00FF41"/>
<path d="M36 63.6C37.9882 63.6 39.6 61.9882 39.6 60C39.6 58.0118 37.9882 56.4 36 56.4C34.0118 56.4 32.4 58.0118 32.4 60C32.4 61.9882 34.0118 63.6 36 63.6Z" fill="#00FF41"/>
<path d="M60 64.8C62.651 64.8 64.8 62.651 64.8 60C64.8 57.349 62.651 55.2 60 55.2C57.349 55.2 55.2 57.349 55.2 60C55.2 62.651 57.349 64.8 60 64.8Z" fill="#00FF41"/>
<path d="M84 63.6C85.9882 63.6 87.6 61.9882 87.6 60C87.6 58.0118 85.9882 56.4 84 56.4C82.0118 56.4 80.4 58.0118 80.4 60C80.4 61.9882 82.0118 63.6 84 63.6Z" fill="#00FF41"/>
<path d="M36 87.6C37.9882 87.6 39.6 85.9882 39.6 84C39.6 82.0118 37.9882 80.4 36 80.4C34.0118 80.4 32.4 82.0118 32.4 84C32.4 85.9882 34.0118 87.6 36 87.6Z" fill="#00FF41"/>
<path d="M60 87.6C61.9882 87.6 63.6 85.9882 63.6 84C63.6 82.0118 61.9882 80.4 60 80.4C58.0118 80.4 56.4 82.0118 56.4 84C56.4 85.9882 58.0118 87.6 60 87.6Z" fill="#00FF41"/>
<path d="M84 87.6C85.9882 87.6 87.6 85.9882 87.6 84C87.6 82.0118 85.9882 80.4 84 80.4C82.0118 80.4 80.4 82.0118 80.4 84C80.4 85.9882 82.0118 87.6 84 87.6Z" fill="#00FF41"/>
<path d="M18 30V18H30" stroke="#00FF41" stroke-width="3" stroke-linecap="square"/>
<path d="M90 18H102V30" stroke="#00FF41" stroke-width="3" stroke-linecap="square"/>
<path d="M102 90V102H90" stroke="#00FF41" stroke-width="3" stroke-linecap="square"/>
<path d="M30 102H18V90" stroke="#00FF41" stroke-width="3" stroke-linecap="square"/>
<g filter="url(#filter0_d_24_43)">
<path d="M124.304 16.3636H133.977L146.932 47.983H147.443L160.398 16.3636H170.071V60H162.486V30.0213H162.081L150.021 59.8722H144.354L132.294 29.9574H131.889V60H124.304V16.3636ZM184.283 60H175.845L191.207 16.3636H200.966L216.349 60H207.912L196.257 25.3125H195.916L184.283 60ZM184.56 42.8906H207.571V49.2401H184.56V42.8906ZM214.906 22.9901V16.3636H249.721V22.9901H236.234V60H228.393V22.9901H214.906ZM256.433 60V16.3636H272.797C276.149 16.3636 278.961 16.946 281.234 18.1108C283.521 19.2756 285.247 20.9091 286.412 23.0114C287.591 25.0994 288.18 27.5355 288.18 30.3196C288.18 33.1179 287.583 35.5469 286.39 37.6065C285.211 39.652 283.471 41.2358 281.17 42.358C278.869 43.4659 276.042 44.0199 272.69 44.0199H261.035V37.4574H271.625C273.585 37.4574 275.19 37.1875 276.44 36.6477C277.69 36.0937 278.613 35.2912 279.21 34.2401C279.821 33.1747 280.126 31.8679 280.126 30.3196C280.126 28.7713 279.821 27.4503 279.21 26.3565C278.599 25.2486 277.669 24.4105 276.419 23.8423C275.169 23.2599 273.556 22.9688 271.582 22.9688H264.338V60H256.433ZM278.975 40.2273L289.778 60H280.957L270.346 40.2273H278.975ZM303.361 16.3636V60H295.456V16.3636H303.361ZM318.526 16.3636L328.136 32.3438H328.477L338.129 16.3636H347.141L333.697 38.1818L347.354 60H338.192L328.477 44.1264H328.136L318.42 60H309.3L323.086 38.1818L309.471 16.3636H318.526Z" fill="#00FF41"/>
</g>
<g filter="url(#filter1_d_24_43)">
<path d="M136.811 84.0156C136.692 82.8991 136.189 82.0298 135.303 81.4077C134.425 80.7855 133.283 80.4744 131.876 80.4744C130.888 80.4744 130.04 80.6236 129.332 80.9219C128.625 81.2202 128.084 81.625 127.709 82.1364C127.334 82.6477 127.142 83.2315 127.134 83.8878C127.134 84.4332 127.257 84.9062 127.504 85.3068C127.76 85.7074 128.105 86.0483 128.54 86.3295C128.974 86.6023 129.456 86.8324 129.984 87.0199C130.513 87.2074 131.045 87.3651 131.582 87.4929L134.037 88.1065C135.026 88.3366 135.976 88.6477 136.888 89.0398C137.808 89.4318 138.631 89.9261 139.355 90.5227C140.088 91.1193 140.668 91.8395 141.094 92.6832C141.52 93.527 141.733 94.5156 141.733 95.6491C141.733 97.1832 141.341 98.5341 140.557 99.7017C139.773 100.861 138.639 101.768 137.156 102.425C135.682 103.072 133.896 103.396 131.8 103.396C129.763 103.396 127.994 103.081 126.494 102.45C125.003 101.82 123.835 100.899 122.991 99.6889C122.156 98.4787 121.705 97.0043 121.636 95.2656H126.303C126.371 96.1776 126.652 96.9361 127.146 97.5412C127.641 98.1463 128.284 98.598 129.077 98.8963C129.878 99.1946 130.773 99.3438 131.761 99.3438C132.793 99.3438 133.696 99.1903 134.472 98.8835C135.256 98.5682 135.869 98.1335 136.312 97.5795C136.756 97.017 136.982 96.3608 136.99 95.6108C136.982 94.929 136.781 94.3665 136.389 93.9233C135.997 93.4716 135.447 93.0966 134.74 92.7983C134.041 92.4915 133.223 92.2187 132.286 91.9801L129.307 91.2131C127.151 90.6591 125.446 89.8196 124.193 88.6946C122.949 87.5611 122.327 86.0568 122.327 84.1818C122.327 82.6392 122.744 81.2884 123.58 80.1293C124.423 78.9702 125.57 78.071 127.018 77.4318C128.467 76.7841 130.108 76.4602 131.94 76.4602C133.798 76.4602 135.426 76.7841 136.824 77.4318C138.23 78.071 139.334 78.9616 140.135 80.1037C140.936 81.2372 141.349 82.5412 141.375 84.0156H136.811ZM169.356 89.9091C169.356 92.7301 168.828 95.1463 167.771 97.1577C166.723 99.1605 165.291 100.695 163.475 101.76C161.669 102.825 159.619 103.358 157.326 103.358C155.034 103.358 152.98 102.825 151.164 101.76C149.358 100.686 147.926 99.1477 146.869 97.1449C145.821 95.1335 145.297 92.7216 145.297 89.9091C145.297 87.0881 145.821 84.6761 146.869 82.6733C147.926 80.6619 149.358 79.1236 151.164 78.0582C152.98 76.9929 155.034 76.4602 157.326 76.4602C159.619 76.4602 161.669 76.9929 163.475 78.0582C165.291 79.1236 166.723 80.6619 167.771 82.6733C168.828 84.6761 169.356 87.0881 169.356 89.9091ZM164.588 89.9091C164.588 87.9233 164.277 86.2486 163.654 84.8849C163.041 83.5128 162.189 82.4773 161.098 81.7784C160.007 81.071 158.75 80.7173 157.326 80.7173C155.903 80.7173 154.646 81.071 153.555 81.7784C152.464 82.4773 151.608 83.5128 150.985 84.8849C150.372 86.2486 150.065 87.9233 150.065 89.9091C150.065 91.8949 150.372 93.5739 150.985 94.946C151.608 96.3097 152.464 97.3452 153.555 98.0526C154.646 98.7514 155.903 99.1009 157.326 99.1009C158.75 99.1009 160.007 98.7514 161.098 98.0526C162.189 97.3452 163.041 96.3097 163.654 94.946C164.277 93.5739 164.588 91.8949 164.588 89.9091ZM173.84 103V76.8182H178.583V99.0241H190.114V103H173.84ZM210.735 76.8182H215.478V93.9233C215.478 95.7983 215.035 97.4474 214.148 98.8707C213.271 100.294 212.035 101.406 210.441 102.207C208.847 103 206.985 103.396 204.854 103.396C202.715 103.396 200.849 103 199.255 102.207C197.661 101.406 196.425 100.294 195.548 98.8707C194.67 97.4474 194.231 95.7983 194.231 93.9233V76.8182H198.974V93.527C198.974 94.6179 199.212 95.5895 199.69 96.4418C200.175 97.294 200.857 97.9631 201.735 98.4489C202.613 98.9261 203.653 99.1648 204.854 99.1648C206.056 99.1648 207.096 98.9261 207.974 98.4489C208.86 97.9631 209.542 97.294 210.019 96.4418C210.496 95.5895 210.735 94.6179 210.735 93.527V76.8182ZM219.483 80.794V76.8182H240.372V80.794H232.279V103H227.575V80.794H219.483ZM249.142 76.8182V103H244.399V76.8182H249.142ZM277.673 89.9091C277.673 92.7301 277.144 95.1463 276.087 97.1577C275.039 99.1605 273.607 100.695 271.792 101.76C269.985 102.825 267.935 103.358 265.643 103.358C263.35 103.358 261.296 102.825 259.481 101.76C257.674 100.686 256.242 99.1477 255.185 97.1449C254.137 95.1335 253.613 92.7216 253.613 89.9091C253.613 87.0881 254.137 84.6761 255.185 82.6733C256.242 80.6619 257.674 79.1236 259.481 78.0582C261.296 76.9929 263.35 76.4602 265.643 76.4602C267.935 76.4602 269.985 76.9929 271.792 78.0582C273.607 79.1236 275.039 80.6619 276.087 82.6733C277.144 84.6761 277.673 87.0881 277.673 89.9091ZM272.904 89.9091C272.904 87.9233 272.593 86.2486 271.971 84.8849C271.357 83.5128 270.505 82.4773 269.414 81.7784C268.323 81.071 267.066 80.7173 265.643 80.7173C264.219 80.7173 262.962 81.071 261.871 81.7784C260.781 82.4773 259.924 83.5128 259.302 84.8849C258.688 86.2486 258.381 87.9233 258.381 89.9091C258.381 91.8949 258.688 93.5739 259.302 94.946C259.924 96.3097 260.781 97.3452 261.871 98.0526C262.962 98.7514 264.219 99.1009 265.643 99.1009C267.066 99.1009 268.323 98.7514 269.414 98.0526C270.505 97.3452 271.357 96.3097 271.971 94.946C272.593 93.5739 272.904 91.8949 272.904 89.9091ZM303.672 76.8182V103H299.453L287.117 85.1662H286.9V103H282.157V76.8182H286.401L298.725 94.6648H298.955V76.8182H303.672ZM323.069 84.0156C322.95 82.8991 322.447 82.0298 321.56 81.4077C320.683 80.7855 319.54 80.4744 318.134 80.4744C317.146 80.4744 316.298 80.6236 315.59 80.9219C314.883 81.2202 314.342 81.625 313.967 82.1364C313.592 82.6477 313.4 83.2315 313.391 83.8878C313.391 84.4332 313.515 84.9062 313.762 85.3068C314.018 85.7074 314.363 86.0483 314.798 86.3295C315.232 86.6023 315.714 86.8324 316.242 87.0199C316.771 87.2074 317.303 87.3651 317.84 87.4929L320.295 88.1065C321.283 88.3366 322.234 88.6477 323.146 89.0398C324.066 89.4318 324.888 89.9261 325.613 90.5227C326.346 91.1193 326.925 91.8395 327.352 92.6832C327.778 93.527 327.991 94.5156 327.991 95.6491C327.991 97.1832 327.599 98.5341 326.815 99.7017C326.031 100.861 324.897 101.768 323.414 102.425C321.94 103.072 320.154 103.396 318.058 103.396C316.021 103.396 314.252 103.081 312.752 102.45C311.261 101.82 310.093 100.899 309.249 99.6889C308.414 98.4787 307.962 97.0043 307.894 95.2656H312.56C312.629 96.1776 312.91 96.9361 313.404 97.5412C313.898 98.1463 314.542 98.598 315.335 98.8963C316.136 99.1946 317.031 99.3438 318.019 99.3438C319.05 99.3438 319.954 99.1903 320.729 98.8835C321.513 98.5682 322.127 98.1335 322.57 97.5795C323.013 97.017 323.239 96.3608 323.248 95.6108C323.239 94.929 323.039 94.3665 322.647 93.9233C322.255 93.4716 321.705 93.0966 320.998 92.7983C320.299 92.4915 319.481 92.2187 318.543 91.9801L315.565 91.2131C313.408 90.6591 311.704 89.8196 310.451 88.6946C309.207 87.5611 308.585 86.0568 308.585 84.1818C308.585 82.6392 309.002 81.2884 309.837 80.1293C310.681 78.9702 311.827 78.071 313.276 77.4318C314.725 76.7841 316.366 76.4602 318.198 76.4602C320.056 76.4602 321.684 76.7841 323.082 77.4318C324.488 78.071 325.592 78.9616 326.393 80.1037C327.194 81.2372 327.607 82.5412 327.633 84.0156H323.069Z" fill="#00FF41"/>
</g>
<defs>
<filter id="filter0_d_24_43" x="120.304" y="16.3636" width="231.05" height="51.6364" filterUnits="userSpaceOnUse" color-interpolation-filters="sRGB">
<feFlood flood-opacity="0" result="BackgroundImageFix"/>
<feColorMatrix in="SourceAlpha" type="matrix" values="0 0 0 0 0 0 0 0 0 0 0 0 0 0 0 0 0 0 127 0" result="hardAlpha"/>
<feOffset dy="4"/>
<feGaussianBlur stdDeviation="2"/>
<feComposite in2="hardAlpha" operator="out"/>
<feColorMatrix type="matrix" values="0 0 0 0 0 0 0 0 0 1 0 0 0 0 0.254902 0 0 0 0.25 0"/>
<feBlend mode="normal" in2="BackgroundImageFix" result="effect1_dropShadow_24_43"/>
<feBlend mode="normal" in="SourceGraphic" in2="effect1_dropShadow_24_43" result="shape"/>
</filter>
<filter id="filter1_d_24_43" x="117.636" y="76.4602" width="214.354" height="34.9361" filterUnits="userSpaceOnUse" color-interpolation-filters="sRGB">
<feFlood flood-opacity="0" result="BackgroundImageFix"/>
<feColorMatrix in="SourceAlpha" type="matrix" values="0 0 0 0 0 0 0 0 0 0 0 0 0 0 0 0 0 0 127 0" result="hardAlpha"/>
<feOffset dy="4"/>
<feGaussianBlur stdDeviation="2"/>
<feComposite in2="hardAlpha" operator="out"/>
<feColorMatrix type="matrix" values="0 0 0 0 0 0 0 0 0 1 0 0 0 0 0.254902 0 0 0 0.25 0"/>
<feBlend mode="normal" in2="BackgroundImageFix" result="effect1_dropShadow_24_43"/>
<feBlend mode="normal" in="SourceGraphic" in2="effect1_dropShadow_24_43" result="shape"/>
</filter>
</defs>
</svg>
